<svg width="16" height="16" fill="none" xmlns="http://www.w3.org/2000/svg"><path d="M5.334 8a2.667 2.667 0 115.334 0 2.667 2.667 0 01-5.334 0zM3.892 8a4.108 4.108 0 108.216 0 4.108 4.108 0 00-8.216 0zm7.418-4.271a.96.96 0 101.92 0 .96.96 0 00-1.92 0zM4.768 14.512a4.42 4.42 0 01-1.486-.275 2.486 2.486 0 01-.92-.6 2.468 2.468 0 01-.6-.92 4.417 4.417 0 01-.275-1.486c-.039-.843-.047-1.1-.047-3.233s.008-2.389.047-3.233c.006-.507.1-1.01.275-1.486.129-.348.334-.662.6-.92a2.46 2.46 0 01.92-.6c.476-.176.979-.27 1.486-.275.843-.039 1.1-.047 3.232-.047s2.389.008 3.233.047c.507.006 1.01.1 1.486.275.348.129.662.334.92.6.266.258.471.572.6.92.176.476.27.979.275 1.486.039.844.047 1.1.047 3.233s-.008 2.389-.047 3.233c-.006.507-.1 1.01-.275 1.486a2.65 2.65 0 01-1.519 1.518c-.476.176-.979.27-1.486.275-.843.039-1.1.047-3.233.047s-2.389-.008-3.232-.047l-.001.002zM4.7.048A5.866 5.866 0 002.76.42a3.924 3.924 0 00-1.417.923c-.407.4-.722.883-.923 1.417A5.868 5.868 0 00.048 4.7C.009 5.555 0 5.827 0 8s.009 2.445.048 3.3c.013.663.14 1.319.372 1.94.2.534.516 1.018.923 1.417.4.407.883.722 1.417.923a5.87 5.87 0 001.942.372C5.555 15.99 5.827 16 8 16s2.445-.009 3.3-.048a5.865 5.865 0 001.942-.372 4.09 4.09 0 002.34-2.34 5.85 5.85 0 00.372-1.942C15.99 10.445 16 10.173 16 8s-.009-2.445-.048-3.3a5.864 5.864 0 00-.372-1.94 3.935 3.935 0 00-.923-1.417A3.915 3.915 0 0013.241.42 5.858 5.858 0 0011.3.048C10.446.01 10.173 0 8 0S5.555.009 4.7.048z" fill="url(#paint0_radial_5_168)"/><path d="M5.334 8a2.667 2.667 0 115.334 0 2.667 2.667 0 01-5.334 0zM3.892 8a4.108 4.108 0 108.216 0 4.108 4.108 0 00-8.216 0zm7.418-4.271a.96.96 0 101.92 0 .96.96 0 00-1.92 0zM4.768 14.512a4.42 4.42 0 01-1.486-.275 2.486 2.486 0 01-.92-.6 2.468 2.468 0 01-.6-.92 4.417 4.417 0 01-.275-1.486c-.039-.843-.047-1.1-.047-3.233s.008-2.389.047-3.233c.006-.507.1-1.01.275-1.486.129-.348.334-.662.6-.92a2.46 2.46 0 01.92-.6c.476-.176.979-.27 1.486-.275.843-.039 1.1-.047 3.232-.047s2.389.008 3.233.047c.507.006 1.01.1 1.486.275.348.129.662.334.92.6.266.258.471.572.6.92.176.476.27.979.275 1.486.039.844.047 1.1.047 3.233s-.008 2.389-.047 3.233c-.006.507-.1 1.01-.275 1.486a2.65 2.65 0 01-1.519 1.518c-.476.176-.979.27-1.486.275-.843.039-1.1.047-3.233.047s-2.389-.008-3.232-.047l-.001.002zM4.7.048A5.866 5.866 0 002.76.42a3.924 3.924 0 00-1.417.923c-.407.4-.722.883-.923 1.417A5.868 5.868 0 00.048 4.7C.009 5.555 0 5.827 0 8s.009 2.445.048 3.3c.013.663.14 1.319.372 1.94.2.534.516 1.018.923 1.417.4.407.883.722 1.417.923a5.87 5.87 0 001.942.372C5.555 15.99 5.827 16 8 16s2.445-.009 3.3-.048a5.865 5.865 0 001.942-.372 4.09 4.09 0 002.34-2.34 5.85 5.85 0 00.372-1.942C15.99 10.445 16 10.173 16 8s-.009-2.445-.048-3.3a5.864 5.864 0 00-.372-1.94 3.935 3.935 0 00-.923-1.417A3.915 3.915 0 0013.241.42 5.858 5.858 0 0011.3.048C10.446.01 10.173 0 8 0S5.555.009 4.7.048z" fill="url(#paint1_radial_5_168)"/><defs><radialGradient id="paint0_radial_5_168" cx="0" cy="0" r="1" gradientUnits="userSpaceOnUse" gradientTransform="translate(2.128 16.08) scale(20.88)"><stop offset=".09" stop-color="#FA8F21"/><stop offset=".78" stop-color="#D82D7E"/></radialGradient><radialGradient id="paint1_radial_5_168" cx="0" cy="0" r="1" gradientUnits="userSpaceOnUse" gradientTransform="translate(9.696 16.8) scale(16.464)"><stop offset=".64" stop-color="#8C3AAA" stop-opacity="0"/><stop offset="1" stop-color="#8C3AAA"/></radialGradient></defs></svg>