<svg width="25" height="25" fill="none" xmlns="http://www.w3.org/2000/svg"><path d="M8.5 7.598v-1.77a3 3 0 10-2 0v2.184a1 1 0 00.293.707L9.5 11.426v11.586a1 1 0 102 0v-12a1 1 0 00-.293-.707L8.5 7.598z" fill="#722ED1"/><path d="M4.5 16.598v-1.77a3 3 0 10-2 0v2.184a1 1 0 00.293.707L5.5 20.426v2.586a1 1 0 102 0v-3a1 1 0 00-.293-.707L4.5 16.598zm14-8.586V5.828a3 3 0 10-2 0v1.77l-2.707 2.707a1 1 0 00-.293.707v12a1 1 0 002 0V11.426l2.707-2.707a1 1 0 00.293-.707z" fill="#722ED1"/><path d="M24.5 12.012a3 3 0 10-4 2.816v1.77l-2.707 2.707a1 1 0 00-.293.707v3a1 1 0 002 0v-2.586l2.707-2.707a1 1 0 00.293-.707v-2.184a3 3 0 002-2.816z" fill="#722ED1"/></svg>