<svg width="16" height="16" fill="none" xmlns="http://www.w3.org/2000/svg"><path d="M7.999 16a8 8 0 100-16 8 8 0 000 16z" fill="#2DAAE1"/><path d="M13.097 4.834a4.17 4.17 0 01-1.2.329 2.1 2.1 0 00.92-1.157 4.18 4.18 0 01-1.328.508 2.092 2.092 0 00-3.564 1.908 5.94 5.94 0 01-4.311-2.185 2.094 2.094 0 00.647 2.792c-.332-.01-.657-.1-.947-.261v.026a2.092 2.092 0 001.678 2.051 2.08 2.08 0 01-.945.036 2.094 2.094 0 001.954 1.452c-.878.688-1.993 1-3.1.866a5.948 5.948 0 009.151-5.282c.41-.296.764-.663 1.045-1.083z" fill="#fff"/></svg>