<svg width="41" height="40" fill="none" xmlns="http://www.w3.org/2000/svg"><path d="M20.5 40c11.046 0 20-8.954 20-20s-8.954-20-20-20S.5 8.954.5 20s8.954 20 20 20z" fill="#E6F7FF"/><path d="M22.124 20.541h-3.248a.541.541 0 00-.541.541v7.036a.542.542 0 00.541.541h3.248a.541.541 0 00.541-.541v-7.036a.54.54 0 00-.541-.541zm-6.495 3.248h-3.248a.541.541 0 00-.541.541v3.789a.541.541 0 00.541.541h3.248a.54.54 0 00.541-.541V24.33a.54.54 0 00-.541-.541zm12.99-6.495h-3.248a.541.541 0 00-.541.541v10.284a.54.54 0 00.541.541h3.248a.541.541 0 00.541-.541V17.835a.54.54 0 00-.541-.541zm-8.119.546a.54.54 0 00.383-.159l4.489-4.493v2.482h1.083v-3.789a.541.541 0 00-.543-.541h-3.788v1.083h2.482L20.5 16.529l-2.323-2.324a.541.541 0 00-.765 0l-2.707 2.706.765.765 2.324-2.323 2.324 2.324a.538.538 0 00.382.163z" fill="#1890FF"/></svg>