<svg width="41" height="40" fill="none" xmlns="http://www.w3.org/2000/svg"><path d="M20.5 40c11.046 0 20-8.954 20-20s-8.954-20-20-20S.5 8.954.5 20s8.954 20 20 20z" fill="#FFF1F0"/><path d="M15.485 19.438v-6.967h9.052v6.967l2.907-1.615-1.9-1.115v-4.743a.5.5 0 00-.5-.5H14.982a.5.5 0 00-.5.5v4.741l-1.92 1.109 2.923 1.623z" fill="#F5222D"/><path d="M20.255 22.967a.501.501 0 01-.488 0l-7.802-4.334v8.42a.5.5 0 00.5.5h15.089a.5.5 0 00.5-.5v-8.42l-7.799 4.334z" fill="#F5222D"/><path d="M18.502 18.713l-1.864-1.864a.5.5 0 010-.711l1.864-1.864.71.711-1.507 1.509 1.509 1.509-.712.71zm3.02 0l-.711-.711 1.509-1.509-1.512-1.505.71-.711 1.865 1.861a.5.5 0 010 .711l-1.861 1.864z" fill="#F5222D"/></svg>