<svg width="41" height="40" fill="none" xmlns="http://www.w3.org/2000/svg"><path d="M20.5 40c11.046 0 20-8.954 20-20s-8.954-20-20-20S.5 8.954.5 20s8.954 20 20 20z" fill="#F6FFED"/><path d="M21.013 12h-1.027v7.7h-1.54v1.032h1.54v7.7h1.027v-3.077h1.541v-1.027h-1.54v-8.219h1.54v-1.027h-1.54V12zm6.487 1.219h-3a1 1 0 00-1 1v3a1 1 0 001 1h3a1 1 0 001-1v-3a1 1 0 00-1-1zm0 9h-3a1 1 0 00-1 1v3a1 1 0 001 1h3a1 1 0 001-1v-3a1 1 0 00-1-1zm-11-5h-3a1 1 0 00-1 1v4a1 1 0 001 1h3a1 1 0 001-1v-4a1 1 0 00-1-1z" fill="#52C41A"/></svg>